<svg version="1.1" id="Layer_1" xmlns="http://www.w3.org/2000/svg" xmlns:xlink="http://www.w3.org/1999/xlink" x="0px" y="0px"
	 width="100%" viewBox="0 0 512 512" enable-background="new 0 0 512 512" xml:space="preserve">
<path fill="#FF9100" opacity="1.000000" stroke="none" 
	d="
M267.000000,513.000000 
	C193.645767,513.000000 120.291542,513.000000 46.809093,512.708435 
	C46.347336,512.047974 46.075851,511.453979 45.671368,511.342529 
	C23.421364,505.210052 9.134764,491.095490 2.854741,468.857178 
	C2.734340,468.430847 1.639961,468.279602 1.000001,468.000000 
	C1.000000,340.979095 1.000000,213.958206 1.291625,86.809227 
	C3.713956,81.837387 5.490601,76.798271 8.036782,72.183777 
	C18.943470,52.417351 35.726509,41.825581 58.379059,41.049004 
	C67.139572,40.748680 75.918983,41.000000 85.000000,41.000000 
	C85.000000,27.274876 85.000000,14.137438 85.000000,1.000000 
	C98.020897,1.000000 111.041786,1.000000 124.531342,1.468657 
	C125.000000,14.863144 125.000000,27.788973 125.000000,40.697800 
	C213.309692,40.697800 301.000763,40.697800 389.000000,40.697800 
	C389.000000,27.265259 389.000000,14.132629 389.000000,1.000000 
	C402.020905,1.000000 415.041779,1.000000 428.531342,1.468657 
	C429.000000,14.862460 429.000000,27.787605 429.000000,40.999992 
	C438.416687,40.999992 447.219543,40.965530 456.022064,41.007729 
	C470.776886,41.078461 483.236115,46.921890 494.025452,56.576580 
	C502.117462,63.817585 507.461395,72.876907 510.715332,83.224838 
	C511.048553,84.284584 512.218384,85.081253 513.000000,86.000000 
	C513.000000,146.020889 513.000000,206.041794 512.669556,266.442261 
	C502.891052,255.282181 492.221008,244.896210 479.841003,236.695877 
	C473.774017,232.677231 472.584778,228.219955 472.871643,221.698685 
	C473.344727,210.942993 473.000000,200.151306 473.000000,189.286575 
	C328.759918,189.286575 185.049881,189.286575 41.000740,189.286575 
	C41.000740,190.539978 41.000740,191.508560 41.000736,192.477142 
	C41.000526,277.964355 40.978355,363.451630 41.078476,448.938721 
	C41.082581,452.444092 41.815254,456.088898 42.932747,459.426270 
	C46.271366,469.396973 54.208271,472.936829 63.913971,472.953888 
	C118.405663,473.049622 172.897644,473.023865 227.389374,472.941315 
	C230.698273,472.936279 232.481216,474.008026 234.554550,476.772156 
	C240.743881,485.023712 247.440414,492.917389 254.275970,500.652924 
	C258.177887,505.068542 262.736877,508.903564 267.000000,513.000000 
M451.197754,81.000114 
	C443.921875,81.000114 436.646027,81.000114 428.880005,81.000114 
	C428.880005,94.590752 428.880005,107.654549 428.880005,120.648911 
	C415.320496,120.648911 402.262146,120.648911 388.712646,120.648911 
	C388.712646,107.237968 388.712646,94.173470 388.712646,81.243515 
	C300.617828,81.243515 213.021713,81.243515 124.927757,81.243515 
	C124.927757,94.541840 124.927757,107.606049 124.927757,120.672783 
	C111.369179,120.672783 98.311401,120.672783 84.760361,120.672783 
	C84.760361,107.286942 84.760361,94.222130 84.760361,81.001183 
	C76.773064,81.001183 69.261383,80.664726 61.802696,81.147316 
	C58.231541,81.378380 54.508617,82.673744 51.294380,84.337189 
	C43.367290,88.439629 41.274155,96.094498 41.087101,104.159904 
	C40.770378,117.816719 40.990807,131.486221 41.015968,145.150330 
	C41.018276,146.404526 41.240940,147.658325 41.347481,148.768494 
	C185.372513,148.768494 328.961304,148.768494 472.982941,148.768494 
	C472.982941,133.256470 473.079865,117.970512 472.896057,102.687943 
	C472.861877,99.847527 471.954681,96.931793 471.008820,94.203949 
	C467.925232,85.310722 460.628876,82.243713 451.197754,81.000114 
z"/>
<path fill="#000000" opacity="1.000000" stroke="none" 
	d="
M267.468658,513.000000 
	C262.736877,508.903564 258.177887,505.068542 254.275970,500.652924 
	C247.440414,492.917389 240.743881,485.023712 234.554550,476.772156 
	C232.481216,474.008026 230.698273,472.936279 227.389374,472.941315 
	C172.897644,473.023865 118.405663,473.049622 63.913971,472.953888 
	C54.208271,472.936829 46.271366,469.396973 42.932747,459.426270 
	C41.815254,456.088898 41.082581,452.444092 41.078476,448.938721 
	C40.978355,363.451630 41.000526,277.964355 41.000736,192.477142 
	C41.000740,191.508560 41.000740,190.539978 41.000740,189.286575 
	C185.049881,189.286575 328.759918,189.286575 473.000000,189.286575 
	C473.000000,200.151306 473.344727,210.942993 472.871643,221.698685 
	C472.584778,228.219955 473.774017,232.677231 479.841003,236.695877 
	C492.221008,244.896210 502.891052,255.282181 512.669556,266.910889 
	C513.000000,296.354218 513.000000,325.708466 512.686829,355.872192 
	C511.504669,353.280273 510.636169,349.878784 509.766632,346.477509 
	C501.940247,315.864685 485.855225,290.379913 461.127716,270.814270 
	C440.921082,254.825790 417.456879,245.520828 391.868500,243.251755 
	C373.695618,241.640259 355.453400,242.869263 337.708801,248.589523 
	C309.721283,257.611725 286.941467,273.637146 269.296509,297.155762 
	C243.628128,331.368744 237.274231,369.711273 246.513458,410.581940 
	C253.113297,439.776978 269.071106,463.802277 292.337982,482.928345 
	C310.208099,497.618134 330.418457,506.939850 353.118408,511.076996 
	C353.838531,511.208221 354.376923,512.336487 355.000000,513.000000 
	C325.979095,513.000000 296.958221,513.000000 267.468658,513.000000 
M237.000031,235.648956 
	C237.000031,247.369095 237.000031,259.089233 237.000031,270.642883 
	C250.744171,270.642883 263.777191,270.642883 276.639984,270.642883 
	C276.639984,257.250031 276.639984,244.216873 276.639984,231.001877 
	C264.161560,231.001877 252.041107,231.098465 239.924133,230.935760 
	C236.790726,230.893707 236.869904,232.579880 237.000031,235.648956 
M179.498627,431.000000 
	C185.261337,431.000000 191.024048,431.000000 196.617371,431.000000 
	C196.617371,417.259308 196.617371,404.198517 196.617371,391.250122 
	C183.291870,391.250122 170.350204,391.250122 157.294373,391.250122 
	C157.294373,404.560638 157.294373,417.619324 157.294373,431.000000 
	C164.556152,431.000000 171.527771,431.000000 179.498627,431.000000 
M84.572342,391.000000 
	C82.145302,391.000000 79.718269,391.000000 77.306610,391.000000 
	C77.306610,404.643433 77.306610,417.674072 77.306610,430.691956 
	C90.646126,430.691956 103.676971,430.691956 116.690536,430.691956 
	C116.690536,417.350983 116.690536,404.320099 116.690536,391.000000 
	C106.106674,391.000000 95.829872,391.000000 84.572342,391.000000 
M169.513123,351.000000 
	C178.584015,351.000000 187.654907,351.000000 196.686768,351.000000 
	C196.686768,337.341675 196.686768,324.311584 196.686768,311.313599 
	C183.341141,311.313599 170.310898,311.313599 157.313934,311.313599 
	C157.313934,324.659546 157.313934,337.689819 157.313934,351.000000 
	C161.255157,351.000000 164.887711,351.000000 169.513123,351.000000 
M117.000000,324.509247 
	C117.000000,320.091705 117.000000,315.674164 117.000000,311.320496 
	C103.326416,311.320496 90.296364,311.320496 77.320557,311.320496 
	C77.320557,324.673431 77.320557,337.703644 77.320557,350.679382 
	C90.673531,350.679382 103.703751,350.679382 117.000000,350.679382 
	C117.000000,342.075714 117.000000,333.790680 117.000000,324.509247 
M197.000000,256.494385 
	C197.000000,248.087540 197.000000,239.680710 197.000000,231.312317 
	C183.343140,231.312317 170.313278,231.312317 157.312347,231.312317 
	C157.312347,244.656754 157.312347,257.686768 157.312347,270.687622 
	C170.656845,270.687622 183.686874,270.687622 197.000000,270.687622 
	C197.000000,266.082214 197.000000,261.786469 197.000000,256.494385 
M77.000000,257.490753 
	C77.000000,261.908295 77.000000,266.325836 77.000000,270.679504 
	C90.673584,270.679504 103.703636,270.679504 116.679443,270.679504 
	C116.679443,257.326569 116.679443,244.296341 116.679443,231.320587 
	C103.326263,231.320587 90.296211,231.320587 77.000000,231.320587 
	C77.000000,239.924255 77.000000,248.209320 77.000000,257.490753 
z"/>
<path fill="#FF9100" opacity="1.000000" stroke="none" 
	d="
M355.468658,513.000000 
	C354.376923,512.336487 353.838531,511.208221 353.118408,511.076996 
	C330.418457,506.939850 310.208099,497.618134 292.337982,482.928345 
	C269.071106,463.802277 253.113297,439.776978 246.513458,410.581940 
	C237.274231,369.711273 243.628128,331.368744 269.296509,297.155762 
	C286.941467,273.637146 309.721283,257.611725 337.708801,248.589523 
	C355.453400,242.869263 373.695618,241.640259 391.868500,243.251755 
	C417.456879,245.520828 440.921082,254.825790 461.127716,270.814270 
	C485.855225,290.379913 501.940247,315.864685 509.766632,346.477509 
	C510.636169,349.878784 511.504669,353.280273 512.686829,356.340820 
	C513.000000,370.687561 513.000000,385.375122 512.689331,400.190918 
	C511.920135,401.306671 511.305206,402.252472 511.029022,403.288544 
	C509.446930,409.224030 508.203796,415.262115 506.365906,421.114716 
	C501.600403,436.290192 493.742676,449.834351 483.951447,462.304474 
	C475.158936,473.502686 464.889740,483.171326 452.992523,490.936157 
	C437.515991,501.037079 420.759613,508.157349 402.373810,511.104675 
	C401.828583,511.192078 401.454071,512.344238 401.000000,513.000000 
	C385.979095,513.000000 370.958221,513.000000 355.468658,513.000000 
M322.971771,301.513885 
	C306.815887,312.444733 295.919586,327.599670 289.152344,345.558929 
	C284.859802,356.950745 281.926849,368.849915 283.966980,381.350067 
	C285.119904,388.414215 285.290314,395.698090 287.041321,402.594025 
	C292.061432,422.365021 302.841736,438.457275 318.750031,451.416138 
	C332.395569,462.531830 347.845795,469.659760 364.991577,471.747070 
	C384.516876,474.124054 403.743713,471.383545 421.386169,461.838318 
	C432.536774,455.805420 442.314941,448.096375 450.512756,438.168976 
	C462.365204,423.815948 470.003510,407.571289 471.753418,389.271606 
	C473.350983,372.565125 471.476715,356.066589 464.275269,340.252747 
	C457.304840,324.946167 447.623016,311.921753 434.233612,302.218231 
	C412.509125,286.474182 388.144989,279.868103 361.308380,285.034058 
	C347.606689,287.671539 334.752472,292.492920 322.971771,301.513885 
z"/>
<path fill="#000000" opacity="1.000000" stroke="none" 
	d="
M388.531342,1.000000 
	C389.000000,14.132629 389.000000,27.265259 389.000000,40.697800 
	C301.000763,40.697800 213.309692,40.697800 125.000000,40.697800 
	C125.000000,27.788973 125.000000,14.863144 125.000000,1.468657 
	C212.687561,1.000000 300.375122,1.000000 388.531342,1.000000 
z"/>
<path fill="#000000" opacity="1.000000" stroke="none" 
	d="
M513.000000,85.531342 
	C512.218384,85.081253 511.048553,84.284584 510.715332,83.224838 
	C507.461395,72.876907 502.117462,63.817585 494.025452,56.576580 
	C483.236115,46.921890 470.776886,41.078461 456.022064,41.007729 
	C447.219543,40.965530 438.416687,40.999992 429.000000,40.999992 
	C429.000000,27.787605 429.000000,14.862460 429.000000,1.468657 
	C456.927338,1.000000 484.854645,1.000000 513.000000,1.000000 
	C513.000000,29.020517 513.000000,57.041599 513.000000,85.531342 
z"/>
<path fill="#000000" opacity="1.000000" stroke="none" 
	d="
M84.531342,1.000000 
	C85.000000,14.137438 85.000000,27.274876 85.000000,41.000000 
	C75.918983,41.000000 67.139572,40.748680 58.379059,41.049004 
	C35.726509,41.825581 18.943470,52.417351 8.036782,72.183777 
	C5.490601,76.798271 3.713956,81.837387 1.291625,86.340569 
	C1.000000,57.740204 1.000000,29.480404 1.000000,1.000000 
	C28.687170,1.000000 56.374928,1.000000 84.531342,1.000000 
z"/>
<path fill="#000000" opacity="1.000000" stroke="none" 
	d="
M401.468658,513.000000 
	C401.454071,512.344238 401.828583,511.192078 402.373810,511.104675 
	C420.759613,508.157349 437.515991,501.037079 452.992523,490.936157 
	C464.889740,483.171326 475.158936,473.502686 483.951447,462.304474 
	C493.742676,449.834351 501.600403,436.290192 506.365906,421.114716 
	C508.203796,415.262115 509.446930,409.224030 511.029022,403.288544 
	C511.305206,402.252472 511.920135,401.306671 512.689331,400.659607 
	C513.000000,438.260284 513.000000,475.520538 513.000000,513.000000 
	C475.979401,513.000000 438.958344,513.000000 401.468658,513.000000 
z"/>
<path fill="#000000" opacity="1.000000" stroke="none" 
	d="
M1.000001,468.468658 
	C1.639961,468.279602 2.734340,468.430847 2.854741,468.857178 
	C9.134764,491.095490 23.421364,505.210052 45.671368,511.342529 
	C46.075851,511.453979 46.347336,512.047974 46.340435,512.708435 
	C31.073294,513.000000 16.146585,513.000000 1.000000,513.000000 
	C1.000000,498.313171 1.000000,483.625244 1.000001,468.468658 
z"/>
<path fill="#000000" opacity="1.000000" stroke="none" 
	d="
M451.659760,81.000458 
	C460.628876,82.243713 467.925232,85.310722 471.008820,94.203949 
	C471.954681,96.931793 472.861877,99.847527 472.896057,102.687943 
	C473.079865,117.970512 472.982941,133.256470 472.982941,148.768494 
	C328.961304,148.768494 185.372513,148.768494 41.347481,148.768494 
	C41.240940,147.658325 41.018276,146.404526 41.015968,145.150330 
	C40.990807,131.486221 40.770378,117.816719 41.087101,104.159904 
	C41.274155,96.094498 43.367290,88.439629 51.294380,84.337189 
	C54.508617,82.673744 58.231541,81.378380 61.802696,81.147316 
	C69.261383,80.664726 76.773064,81.001183 84.760361,81.001183 
	C84.760361,94.222130 84.760361,107.286942 84.760361,120.672783 
	C98.311401,120.672783 111.369179,120.672783 124.927757,120.672783 
	C124.927757,107.606049 124.927757,94.541840 124.927757,81.243515 
	C213.021713,81.243515 300.617828,81.243515 388.712646,81.243515 
	C388.712646,94.173470 388.712646,107.237968 388.712646,120.648911 
	C402.262146,120.648911 415.320496,120.648911 428.880005,120.648911 
	C428.880005,107.654549 428.880005,94.590752 428.880005,81.000114 
	C436.646027,81.000114 443.921875,81.000114 451.659760,81.000458 
z"/>
<path fill="#FF9100" opacity="1.000000" stroke="none" 
	d="
M237.000153,235.166595 
	C236.869904,232.579880 236.790726,230.893707 239.924133,230.935760 
	C252.041107,231.098465 264.161560,231.001877 276.639984,231.001877 
	C276.639984,244.216873 276.639984,257.250031 276.639984,270.642883 
	C263.777191,270.642883 250.744171,270.642883 237.000031,270.642883 
	C237.000031,259.089233 237.000031,247.369095 237.000153,235.166595 
z"/>
<path fill="#FF9100" opacity="1.000000" stroke="none" 
	d="
M178.999008,431.000000 
	C171.527771,431.000000 164.556152,431.000000 157.294373,431.000000 
	C157.294373,417.619324 157.294373,404.560638 157.294373,391.250122 
	C170.350204,391.250122 183.291870,391.250122 196.617371,391.250122 
	C196.617371,404.198517 196.617371,417.259308 196.617371,431.000000 
	C191.024048,431.000000 185.261337,431.000000 178.999008,431.000000 
z"/>
<path fill="#FF9100" opacity="1.000000" stroke="none" 
	d="
M85.062714,391.000000 
	C95.829872,391.000000 106.106674,391.000000 116.690536,391.000000 
	C116.690536,404.320099 116.690536,417.350983 116.690536,430.691956 
	C103.676971,430.691956 90.646126,430.691956 77.306610,430.691956 
	C77.306610,417.674072 77.306610,404.643433 77.306610,391.000000 
	C79.718269,391.000000 82.145302,391.000000 85.062714,391.000000 
z"/>
<path fill="#FF9100" opacity="1.000000" stroke="none" 
	d="
M169.016693,351.000000 
	C164.887711,351.000000 161.255157,351.000000 157.313934,351.000000 
	C157.313934,337.689819 157.313934,324.659546 157.313934,311.313599 
	C170.310898,311.313599 183.341141,311.313599 196.686768,311.313599 
	C196.686768,324.311584 196.686768,337.341675 196.686768,351.000000 
	C187.654907,351.000000 178.584015,351.000000 169.016693,351.000000 
z"/>
<path fill="#FF9100" opacity="1.000000" stroke="none" 
	d="
M117.000000,325.007446 
	C117.000000,333.790680 117.000000,342.075714 117.000000,350.679382 
	C103.703751,350.679382 90.673531,350.679382 77.320557,350.679382 
	C77.320557,337.703644 77.320557,324.673431 77.320557,311.320496 
	C90.296364,311.320496 103.326416,311.320496 117.000000,311.320496 
	C117.000000,315.674164 117.000000,320.091705 117.000000,325.007446 
z"/>
<path fill="#FF9100" opacity="1.000000" stroke="none" 
	d="
M197.000000,256.992554 
	C197.000000,261.786469 197.000000,266.082214 197.000000,270.687622 
	C183.686874,270.687622 170.656845,270.687622 157.312347,270.687622 
	C157.312347,257.686768 157.312347,244.656754 157.312347,231.312317 
	C170.313278,231.312317 183.343140,231.312317 197.000000,231.312317 
	C197.000000,239.680710 197.000000,248.087540 197.000000,256.992554 
z"/>
<path fill="#FF9100" opacity="1.000000" stroke="none" 
	d="
M77.000000,256.992554 
	C77.000000,248.209320 77.000000,239.924255 77.000000,231.320587 
	C90.296211,231.320587 103.326263,231.320587 116.679443,231.320587 
	C116.679443,244.296341 116.679443,257.326569 116.679443,270.679504 
	C103.703636,270.679504 90.673584,270.679504 77.000000,270.679504 
	C77.000000,266.325836 77.000000,261.908295 77.000000,256.992554 
z"/>
<path fill="#000000" opacity="1.000000" stroke="none" 
	d="
M323.232574,301.257843 
	C334.752472,292.492920 347.606689,287.671539 361.308380,285.034058 
	C388.144989,279.868103 412.509125,286.474182 434.233612,302.218231 
	C447.623016,311.921753 457.304840,324.946167 464.275269,340.252747 
	C471.476715,356.066589 473.350983,372.565125 471.753418,389.271606 
	C470.003510,407.571289 462.365204,423.815948 450.512756,438.168976 
	C442.314941,448.096375 432.536774,455.805420 421.386169,461.838318 
	C403.743713,471.383545 384.516876,474.124054 364.991577,471.747070 
	C347.845795,469.659760 332.395569,462.531830 318.750031,451.416138 
	C302.841736,438.457275 292.061432,422.365021 287.041321,402.594025 
	C285.290314,395.698090 285.119904,388.414215 283.966980,381.350067 
	C281.926849,368.849915 284.859802,356.950745 289.152344,345.558929 
	C295.919586,327.599670 306.815887,312.444733 323.232574,301.257843 
M358.760590,311.016174 
	C358.173737,312.631042 357.082184,314.243835 357.075439,315.861115 
	C356.968414,341.676697 356.996826,367.492828 357.008545,393.308838 
	C357.009216,394.755157 357.133026,396.201416 357.202057,397.702789 
	C381.922058,397.702789 406.302490,397.702789 430.667755,397.702789 
	C430.667755,384.349518 430.667755,371.296234 430.667755,357.755676 
	C419.279724,357.755676 408.217804,357.755676 396.862488,357.755676 
	C396.862488,341.995361 396.862488,326.725952 396.862488,311.002258 
	C384.276581,311.002258 371.998383,311.002258 358.760590,311.016174 
z"/>
<path fill="#FF9100" opacity="1.000000" stroke="none" 
	d="
M359.240417,311.009216 
	C371.998383,311.002258 384.276581,311.002258 396.862488,311.002258 
	C396.862488,326.725952 396.862488,341.995361 396.862488,357.755676 
	C408.217804,357.755676 419.279724,357.755676 430.667755,357.755676 
	C430.667755,371.296234 430.667755,384.349518 430.667755,397.702789 
	C406.302490,397.702789 381.922058,397.702789 357.202057,397.702789 
	C357.133026,396.201416 357.009216,394.755157 357.008545,393.308838 
	C356.996826,367.492828 356.968414,341.676697 357.075439,315.861115 
	C357.082184,314.243835 358.173737,312.631042 359.240417,311.009216 
z"/>
</svg>