<?xml version="1.0" standalone="no"?>
<!DOCTYPE svg PUBLIC "-//W3C//DTD SVG 20010904//EN"
 "http://www.w3.org/TR/2001/REC-SVG-20010904/DTD/svg10.dtd">
<svg version="1.0" xmlns="http://www.w3.org/2000/svg"
 width="500.000000pt" height="500.000000pt" viewBox="0 0 500.000000 500.000000"
 preserveAspectRatio="xMidYMid meet">

<g transform="translate(0.000000,500.000000) scale(0.100000,-0.100000)"
fill="#000000" stroke="none">
<path d="M2074 2992 c-28 -10 -63 -27 -78 -39 -133 -105 -146 -322 -25 -442
56 -57 110 -76 214 -76 78 0 97 4 141 27 206 109 206 410 0 515 -68 35 -178
42 -252 15z m203 -128 c54 -41 68 -70 68 -144 0 -74 -14 -103 -67 -143 -67
-50 -194 -23 -239 50 -31 49 -31 137 0 186 45 73 172 100 238 51z"/>
<path d="M1190 2720 l0 -280 60 0 60 0 0 86 0 85 47 -3 47 -3 46 -80 46 -80
72 -3 c40 -2 72 -1 72 2 0 3 -25 47 -56 97 -51 85 -54 93 -37 102 101 56 117
223 30 304 -49 44 -91 53 -249 53 l-138 0 0 -280z m274 159 c49 -23 57 -97 14
-136 -14 -13 -40 -19 -94 -21 l-74 -4 0 86 0 86 65 0 c35 0 75 -5 89 -11z"/>
<path d="M2600 2905 l0 -65 618 2 617 3 0 60 0 60 -617 3 -618 2 0 -65z"/>
<path d="M2790 2611 c-105 -37 -180 -150 -180 -271 0 -125 81 -242 189 -274
168 -49 322 23 381 179 l10 25 -68 0 c-64 -1 -68 -2 -87 -32 -30 -47 -80 -70
-143 -65 -56 4 -91 24 -126 71 -30 39 -30 153 0 192 35 47 70 67 126 71 63 5
113 -18 143 -65 19 -29 24 -31 83 -32 43 0 62 4 62 13 0 20 -39 89 -69 120
-71 77 -212 107 -321 68z"/>
<path d="M3504 2340 l-112 -280 68 0 67 0 21 50 21 50 109 0 110 0 18 -50 18
-50 69 0 c51 0 68 3 64 13 -3 6 -53 132 -112 280 l-107 267 -62 0 -61 0 -111
-280z m215 15 c17 -44 31 -83 31 -87 0 -5 -34 -8 -75 -8 l-74 0 28 78 c43 114
43 114 51 105 5 -4 22 -44 39 -88z"/>
<path d="M1200 2120 l0 -70 618 2 617 3 3 68 3 67 -621 0 -620 0 0 -70z"/>
</g>
</svg>
